<?xml version="1.0" standalone="no"?>
<!DOCTYPE svg PUBLIC "-//W3C//DTD SVG 20010904//EN"
 "http://www.w3.org/TR/2001/REC-SVG-20010904/DTD/svg10.dtd">
<svg version="1.0" xmlns="http://www.w3.org/2000/svg"
 width="640.000000pt" height="640.000000pt" viewBox="0 0 640.000000 640.000000"
 preserveAspectRatio="xMidYMid meet">

<g transform="translate(0.000000,640.000000) scale(0.100000,-0.100000)"
fill="#000000" stroke="none">
<path d="M2697 5489 c-121 -29 -163 -76 -324 -361 -2 -5 49 -8 114 -8 l118 0
38 68 c61 109 23 102 560 102 l465 0 31 -26 c17 -14 45 -52 63 -85 l33 -59
118 0 c65 0 116 3 114 8 -2 4 -35 60 -72 125 -76 134 -114 175 -194 215 l-56
27 -485 2 c-267 1 -502 -3 -523 -8z"/>
<path d="M2360 4903 c0 -22 125 -323 147 -355 l25 -37 -29 -43 c-35 -50 -133
-222 -133 -232 0 -3 52 -6 115 -6 l114 0 36 65 c20 35 50 76 66 90 l31 25 468
0 468 0 31 -25 c16 -14 46 -55 66 -90 l36 -65 114 0 c63 0 115 3 115 6 0 10
-98 182 -133 232 l-29 43 25 37 c22 32 147 333 147 355 0 4 -48 7 -108 7
l-107 0 -48 -125 c-33 -85 -56 -131 -74 -145 -25 -19 -39 -20 -503 -20 -464 0
-478 1 -503 20 -18 14 -41 60 -74 145 l-48 125 -107 0 c-60 0 -108 -3 -108 -7z"/>
<path d="M2360 4022 c0 -4 24 -71 54 -147 l55 -140 -112 -5 c-176 -8 -208 -32
-367 -270 -55 -82 -100 -152 -100 -155 0 -2 12 0 26 5 14 6 71 10 127 10 l102
0 54 80 c30 44 65 90 78 102 l25 23 898 0 898 0 25 -23 c13 -13 48 -59 78
-102 l54 -80 102 0 c56 0 113 -4 127 -10 14 -5 26 -7 26 -5 0 3 -45 73 -100
155 -159 238 -191 262 -367 270 l-112 5 55 140 c30 76 54 143 54 147 0 4 -48
8 -107 8 l-108 0 -50 -127 c-37 -94 -57 -132 -78 -147 -28 -21 -39 -21 -497
-21 -458 0 -469 0 -497 21 -21 15 -41 53 -78 147 l-50 127 -107 0 c-60 0 -108
-4 -108 -8z"/>
<path d="M1880 2845 c0 -2 42 -97 94 -211 l94 -209 -81 -6 c-154 -11 -194 -41
-337 -255 -61 -90 -110 -165 -110 -168 0 -2 15 0 32 5 18 5 76 9 128 9 l95 0
50 78 c28 42 61 87 74 99 l24 23 1257 0 1257 0 26 -25 c14 -14 47 -59 74 -100
l48 -75 95 0 c52 0 110 -4 128 -9 17 -5 32 -7 32 -5 0 3 -49 78 -110 168 -143
214 -183 244 -337 255 l-82 6 94 208 c52 115 95 210 95 212 0 2 -21 -3 -47
-11 -25 -8 -78 -14 -117 -14 l-72 0 -79 -176 c-54 -119 -88 -183 -108 -200
l-29 -24 -868 0 -868 0 -30 25 c-20 17 -53 78 -108 200 l-78 175 -71 0 c-40 0
-93 6 -118 14 -26 8 -47 13 -47 11z"/>
<path d="M1532 1519 c3 -8 52 -117 109 -244 114 -253 145 -296 244 -345 l50
-25 1265 0 1265 0 50 25 c99 49 130 92 244 345 129 287 119 260 90 250 -13 -4
-66 -10 -118 -14 l-94 -6 -78 -175 c-47 -103 -89 -184 -105 -197 l-25 -23
-1229 0 -1229 0 -25 23 c-16 13 -58 94 -105 197 l-78 175 -94 6 c-52 4 -105
10 -118 14 -19 6 -23 5 -19 -6z"/>
</g>
</svg>
