<?xml version="1.0" standalone="no"?>
<!DOCTYPE svg PUBLIC "-//W3C//DTD SVG 20010904//EN"
 "http://www.w3.org/TR/2001/REC-SVG-20010904/DTD/svg10.dtd">
<svg version="1.0" xmlns="http://www.w3.org/2000/svg"
 width="640.000000pt" height="640.000000pt" viewBox="0 0 640.000000 640.000000"
 preserveAspectRatio="xMidYMid meet">

<g transform="translate(0.000000,640.000000) scale(0.100000,-0.100000)"
fill="#000000" stroke="none">
<path d="M4315 3517 c-49 -13 -115 -36 -145 -51 -82 -42 -184 -128 -233 -199
-79 -110 -107 -183 -132 -337 -8 -52 -18 -109 -21 -127 l-5 -32 -102 54 c-228
120 -436 150 -687 99 -90 -19 -236 -74 -300 -113 -46 -29 -47 -29 -71 -10 -47
38 -165 89 -239 105 -98 21 -202 14 -303 -20 -42 -14 -79 -26 -81 -26 -3 0
-14 28 -25 63 -43 129 -132 255 -240 338 -48 37 -72 49 -98 49 -72 0 -124 -56
-108 -117 3 -15 25 -44 48 -63 78 -66 136 -133 168 -193 27 -51 29 -59 13 -53
-183 71 -409 30 -568 -104 -112 -94 -202 -243 -248 -411 -20 -73 -23 -106 -22
-259 0 -192 12 -257 73 -417 66 -169 215 -349 362 -436 158 -93 357 -116 510
-58 l49 19 77 -25 c128 -42 264 -34 411 24 l62 25 63 -58 c169 -156 392 -248
632 -261 221 -11 456 58 630 184 l40 30 55 -28 c230 -113 521 -22 638 200 38
71 566 1286 594 1366 17 48 22 85 22 185 1 112 -2 134 -28 214 -109 331 -459
527 -791 443z m268 -202 c200 -52 329 -206 352 -420 7 -66 7 -67 -15 -60 -91
29 -229 65 -248 65 -60 0 -111 -65 -96 -124 11 -44 54 -69 178 -105 93 -27
117 -38 113 -50 -2 -9 -120 -286 -263 -615 -275 -636 -290 -663 -374 -706 -54
-28 -126 -42 -175 -34 -72 10 -74 16 -26 83 55 80 125 227 150 321 54 196 40
440 -34 631 l-22 56 23 -5 c59 -11 114 42 114 108 0 54 -40 82 -172 119 -105
30 -118 36 -118 56 0 56 54 363 71 408 83 210 321 330 542 272z m-1212 -590
c157 -33 268 -95 395 -220 179 -176 255 -373 241 -620 -14 -229 -108 -415
-288 -571 -79 -68 -154 -111 -256 -147 -75 -26 -107 -31 -217 -35 -194 -7
-313 20 -459 106 -74 43 -196 158 -253 238 -144 202 -181 474 -98 722 85 256
324 469 589 525 92 20 256 21 346 2z m-1688 -35 c47 -18 88 -41 176 -103 39
-27 89 -17 154 32 82 62 161 91 251 91 75 0 149 -18 194 -46 l23 -15 -41 -47
c-97 -109 -169 -242 -218 -402 -23 -77 -26 -101 -26 -260 -1 -210 20 -303 104
-470 35 -69 34 -69 -58 -89 -83 -17 -141 -13 -207 15 -116 50 -122 51 -204 15
-176 -78 -328 -42 -485 114 -95 94 -145 175 -185 300 -75 232 -65 439 29 631
84 173 198 253 362 254 54 0 94 -6 131 -20z"/>
<path d="M3669 2039 c-41 -44 -40 -90 5 -135 66 -66 165 -24 166 69 0 89 -110
132 -171 66z"/>
<path d="M3593 1693 c-12 -2 -34 -18 -48 -34 -34 -42 -33 -89 3 -130 24 -26
36 -32 72 -32 36 0 48 6 72 32 68 76 3 183 -99 164z"/>
<path d="M3179 1491 c-42 -42 -41 -102 2 -142 44 -41 90 -40 135 5 22 22 34
44 34 61 0 92 -107 140 -171 76z"/>
</g>
</svg>
