<?xml version="1.0" standalone="no"?>
<!DOCTYPE svg PUBLIC "-//W3C//DTD SVG 20010904//EN"
 "http://www.w3.org/TR/2001/REC-SVG-20010904/DTD/svg10.dtd">
<svg version="1.0" xmlns="http://www.w3.org/2000/svg"
 width="640.000000pt" height="640.000000pt" viewBox="0 0 640.000000 640.000000"
 preserveAspectRatio="xMidYMid meet">

<g transform="translate(0.000000,640.000000) scale(0.100000,-0.100000)"
fill="#000000" stroke="none">
<path d="M3131 4489 l-31 -31 0 -579 0 -579 -579 0 -579 0 -31 -31 c-43 -43
-43 -95 0 -138 l31 -31 579 0 579 0 0 -579 0 -579 31 -31 c43 -43 95 -43 138
0 l31 31 0 579 0 579 579 0 579 0 31 31 c43 43 43 95 0 138 l-31 31 -579 0
-579 0 0 579 0 579 -31 31 c-23 24 -39 31 -69 31 -30 0 -46 -7 -69 -31z"/>
</g>
</svg>
