<?xml version="1.0" standalone="no"?>
<!DOCTYPE svg PUBLIC "-//W3C//DTD SVG 20010904//EN"
 "http://www.w3.org/TR/2001/REC-SVG-20010904/DTD/svg10.dtd">
<svg version="1.0" xmlns="http://www.w3.org/2000/svg"
 width="640.000000pt" height="640.000000pt" viewBox="0 0 640.000000 640.000000"
 preserveAspectRatio="xMidYMid meet">

<g transform="translate(0.000000,640.000000) scale(0.100000,-0.100000)"
fill="#000000" stroke="none">
<path d="M2910 5575 c-465 -57 -880 -231 -1235 -518 -95 -77 -277 -262 -358
-364 -269 -339 -439 -760 -493 -1218 -20 -168 -14 -481 11 -645 107 -695 497
-1292 1085 -1660 531 -332 1239 -444 1859 -294 678 165 1247 616 1556 1233
118 235 189 464 232 741 25 164 25 539 -1 705 -114 748 -541 1372 -1183 1734
-266 150 -623 260 -937 291 -144 13 -404 11 -536 -5z m609 -210 c462 -67 866
-262 1196 -576 280 -267 484 -605 583 -964 64 -232 84 -382 84 -630 1 -491
-145 -938 -434 -1323 -311 -414 -774 -706 -1291 -812 -498 -102 -1022 -33
-1470 194 -309 157 -589 402 -789 691 -460 665 -511 1582 -127 2304 194 364
505 676 873 876 403 218 912 307 1375 240z"/>
</g>
</svg>
