<?xml version="1.0" standalone="no"?>
<!DOCTYPE svg PUBLIC "-//W3C//DTD SVG 20010904//EN"
 "http://www.w3.org/TR/2001/REC-SVG-20010904/DTD/svg10.dtd">
<svg version="1.0" xmlns="http://www.w3.org/2000/svg"
 width="640.000000pt" height="640.000000pt" viewBox="0 0 640.000000 640.000000"
 preserveAspectRatio="xMidYMid meet">

<g transform="translate(0.000000,640.000000) scale(0.100000,-0.100000)"
fill="#000000" stroke="none">
<path d="M1540 5599 c-184 -30 -359 -208 -390 -399 -7 -45 -10 -620 -8 -1865
l3 -1800 24 -60 c13 -33 35 -78 49 -99 40 -65 130 -143 209 -181 l73 -37 0
-152 c0 -141 2 -154 21 -175 49 -52 124 -46 160 13 16 27 19 51 19 169 l0 137
780 0 780 0 0 -133 c0 -154 13 -193 72 -215 30 -12 40 -11 72 2 55 23 66 59
66 223 l0 138 71 33 c82 39 180 131 221 208 61 115 58 -1 58 1966 0 1293 -3
1812 -11 1850 -27 125 -134 266 -249 327 -114 61 -107 61 -1080 60 -487 -1
-910 -5 -940 -10z m1915 -226 c41 -22 100 -79 127 -124 34 -55 38 -134 38
-776 l0 -633 -1135 0 -1136 0 3 683 c3 677 3 682 25 722 19 36 59 79 105 114
54 40 56 40 1013 38 l920 -2 40 -22z m163 -2770 c-3 -1021 -3 -1028 -24 -1074
-31 -66 -78 -114 -142 -146 l-57 -28 -915 0 c-910 0 -915 0 -960 21 -60 28
-117 86 -146 148 l-24 51 0 1028 0 1027 1135 0 1136 0 -3 -1027z"/>
</g>
</svg>
